<svg width="131" height="54" viewBox="0 0 131 54" fill="none" xmlns="http://www.w3.org/2000/svg">
<path fill-rule="evenodd" clip-rule="evenodd" d="M71.9773 17.9468C71.9773 17.3987 72.1356 16.9932 72.4533 16.7297C72.7711 16.4662 73.2271 16.3338 73.8206 16.3338C74.1907 16.3338 74.5279 16.3792 74.8359 16.47C75.1427 16.5621 75.3475 16.6274 75.4502 16.6683V30.3946C75.4502 31.8752 75.2403 33.1646 74.8198 34.2603C74.4 35.3559 73.8206 36.2686 73.0843 36.9983C72.3461 37.7294 71.4755 38.2769 70.4711 38.6421C69.4668 39.0079 68.3701 39.1902 67.1824 39.1902C65.9733 39.1902 64.8624 38.9868 63.8477 38.582C62.8344 38.1765 61.9579 37.6181 61.221 36.9075C60.4828 36.1969 59.9041 35.345 59.4836 34.3504C59.0644 33.3571 58.8545 32.2814 58.8545 31.125C58.8545 29.9488 59.0534 28.8679 59.4526 27.8829C59.853 26.8998 60.4065 26.0479 61.1131 25.3271C61.8197 24.6075 62.6503 24.0492 63.6017 23.6533C64.5556 23.258 65.5942 23.0591 66.7212 23.0591C67.9096 23.0591 68.9546 23.2881 69.8569 23.7441C70.7579 24.2008 71.4645 24.7547 71.9773 25.4026V17.9468ZM71.9773 31.125C71.9773 30.4349 71.8591 29.7863 71.6234 29.1774C71.3883 28.5679 71.0653 28.0409 70.6559 27.5951C70.2451 27.1486 69.7497 26.7988 69.1652 26.5442C68.5807 26.2909 67.9413 26.1643 67.2444 26.1643C66.5275 26.1643 65.8816 26.2909 65.3081 26.5442C64.7339 26.7988 64.2372 27.1435 63.8174 27.5797C63.3976 28.0153 63.0746 28.5385 62.8492 29.1467C62.6238 29.7556 62.5114 30.4144 62.5114 31.125C62.5114 31.8356 62.6238 32.4892 62.8492 33.0885C63.0746 33.6865 63.3976 34.204 63.8174 34.6402C64.2372 35.0764 64.7339 35.4211 65.3081 35.675C65.8816 35.9283 66.5275 36.0549 67.2444 36.0549C67.9413 36.0549 68.5807 35.9341 69.1652 35.6897C69.7497 35.4461 70.2451 35.1122 70.6559 34.6862C71.0653 34.2603 71.3883 33.7422 71.6234 33.1333C71.8591 32.525 71.9773 31.8547 71.9773 31.125ZM129.424 36.1852C130.469 36.1852 131 36.725 131 37.749C131 38.1449 130.907 38.6463 130.673 39.1305H116.871C115.884 39.1305 115.083 38.3374 115.083 37.3588C115.083 36.6399 115.394 35.9562 115.939 35.4816C116.382 35.0966 121.502 30.5977 124.863 27.284C125.247 26.9066 124.98 26.26 124.44 26.26H118.027C117.976 26.26 117.929 26.2581 117.881 26.2568H117.803C116.717 26.2568 116.165 25.6959 116.165 24.6322C116.165 24.221 116.262 23.6997 116.505 23.197H117.037H121.672H128.734C129.917 23.197 130.608 23.7394 130.608 24.8171C130.608 25.8993 129.818 26.5887 129.329 27.0844C126.479 29.9735 121.049 34.7761 120.631 35.1369C120.211 35.4989 120.471 36.1852 121.029 36.1852H129.424ZM107.184 29.2202V37.8054C107.184 38.4988 106.786 39.2145 105.449 39.2145C104.897 39.2145 104.482 39.1032 103.917 38.903L103.921 30.0421C103.921 27.9007 103.003 26.1035 100.201 26.1035C97.3999 26.1035 96.486 27.8604 96.486 30.0421V37.8054C96.486 38.4988 96.0881 39.2145 94.7525 39.2145C94.1989 39.2145 93.7856 39.1032 93.2205 38.903V29.2202C93.2205 25.2912 96.3865 23.1844 100.201 23.1844C104.231 23.1844 107.184 25.4057 107.184 29.2202ZM111.86 23.1485C112.427 23.1485 112.851 23.2592 113.431 23.46V37.8092C113.431 38.5019 113.023 39.2182 111.653 39.2182C111.086 39.2182 110.662 39.1069 110.083 38.9067V24.5569C110.083 23.8642 110.49 23.1485 111.86 23.1485ZM83.3866 23.1997C88.6078 23.1997 91.7132 26.4182 91.7132 31.0277C91.7132 36.7923 87.1088 39.0987 83.4719 39.0987C79.4462 39.0987 76.9583 36.8844 76.9583 34.1182C76.9583 31.6519 78.4825 30.374 81.4419 29.7831C82.5741 29.5566 84.0067 29.4383 85.744 29.4383C86.1484 29.4383 87.2024 29.4441 88.0162 29.4984C87.5589 26.8825 85.2041 26.0689 82.9177 26.0689C82.4262 26.0689 80.9853 26.3638 80.0823 26.7898C79.4714 27.0814 78.6724 27.2061 77.949 26.2103C77.6494 25.799 77.5331 25.4095 77.4769 24.823C79.6277 23.7242 81.5911 23.1997 83.3866 23.1997ZM83.5326 36.4585C85.6439 36.4585 87.9348 35.1786 88.168 31.8387C87.7043 31.8182 87.2586 31.8086 86.8356 31.8086H85.5619C84.4517 31.8086 83.3724 31.9007 82.8654 32.0178C81.9011 32.2429 80.3213 32.5384 80.3213 34.1783C80.3213 35.5055 81.4206 36.4585 83.5326 36.4585ZM113.785 18.6039C113.785 19.713 112.877 20.6135 111.756 20.6135C110.636 20.6135 109.727 19.713 109.727 18.6039C109.727 17.4942 110.636 16.5937 111.756 16.5937C112.877 16.5937 113.785 17.4942 113.785 18.6039ZM19.4886 0.0307004C19.5603 0.010873 19.641 0 19.7301 0C20.2462 0 21.0296 0.338343 21.9364 0.862808C21.0703 0.683722 20.1816 0.443876 19.2612 0.138791C19.3381 0.0895427 19.4143 0.0518068 19.4886 0.0307004ZM18.5391 0.908858C18.6154 0.798849 18.6909 0.697793 18.7665 0.606332C20.4425 1.17813 21.9855 1.57723 23.4407 1.81836C23.659 1.96738 23.8799 2.12152 24.1007 2.2795C22.3976 2.05437 20.5775 1.60921 18.5766 0.92229C18.563 0.918452 18.5508 0.913336 18.5391 0.908858ZM18.1155 1.58618C18.1781 1.47681 18.2395 1.37256 18.3021 1.27151C19.0688 1.56508 19.8412 1.85098 20.6124 2.11193C22.4428 2.73297 24.1214 3.14551 25.6838 3.45443C25.8879 3.61113 26.0887 3.76719 26.2844 3.92069C24.434 3.57403 22.6282 3.17557 20.4936 2.45219C19.7004 2.18228 18.9047 1.88871 18.1155 1.58618ZM17.7144 2.34538C17.7699 2.23473 17.8242 2.12728 17.8797 2.02175C19.3433 2.55836 20.8494 3.10585 22.3459 3.57211C24.1027 4.11704 25.6954 4.43172 27.1861 4.63895C27.3708 4.78798 27.5478 4.93316 27.7189 5.07387C26.0442 4.86601 24.2532 4.54109 22.2368 3.91429C20.7203 3.44164 19.1954 2.88775 17.7144 2.34538ZM35.2084 4.02494C37.2739 3.10585 39.3988 2.307 40.5562 2.307C40.5801 2.307 40.604 2.30828 40.6273 2.30892C39.8574 2.5993 39.0759 2.88903 38.295 3.16086C37.7829 3.3393 37.3049 3.49153 36.8341 3.62584C36.2915 3.7819 35.7497 3.91366 35.2084 4.02494ZM17.3469 3.12568C17.3979 3.01375 17.447 2.90438 17.498 2.79565C18.1794 3.01759 18.8569 3.244 19.528 3.46914C21.1317 4.0064 22.789 4.56156 24.4288 5.02526C26.0151 5.46978 27.4599 5.78766 28.8143 5.98785C28.8957 6.05692 28.9738 6.1228 29.0455 6.18356C29.1779 6.29741 29.3181 6.38056 29.4608 6.43748C27.8894 6.2488 26.2063 5.8983 24.3307 5.37064C22.6811 4.90502 21.0193 4.34794 19.4117 3.8094C18.7297 3.58107 18.0399 3.35082 17.3469 3.12568ZM41.0148 3.13271C41.2105 3.05596 41.4062 2.97857 41.6025 2.90118C41.6613 2.9984 41.7182 3.10393 41.7737 3.22098C41.5644 3.30285 41.3558 3.38535 41.1472 3.46658C40.604 3.67701 40.1041 3.85993 39.6204 4.02303C37.1221 4.86664 34.684 5.32012 32.3446 5.38088C32.603 5.25168 32.8742 5.118 33.1552 4.98241C35.2065 4.84938 37.3314 4.41573 39.5028 3.68276C39.9821 3.52095 40.4768 3.34122 41.0148 3.13271ZM16.9477 4.05181C16.9942 3.9386 17.042 3.82667 17.0892 3.71602C18.6315 4.1017 20.1616 4.54429 21.6626 4.97985C23.325 5.46338 25.0463 5.85545 26.7417 6.26223C30.1293 7.07323 32.8981 7.36425 35.4551 7.17941C37.6756 7.02271 39.9607 6.49185 42.4816 5.54269C42.5061 5.66102 42.5307 5.7787 42.5558 5.90022C40.0227 6.8481 37.7209 7.37896 35.4823 7.53822C32.8865 7.72498 30.0815 7.43076 26.6565 6.61145C24.9526 6.20275 23.2275 5.81068 21.5605 5.32587C20.0466 4.88583 18.5023 4.43876 16.9477 4.05181ZM32.6372 6.29037C35.605 6.27438 38.7155 5.58491 42.1347 4.18868C42.1703 4.30061 42.2032 4.41637 42.2361 4.53534C38.7865 5.93988 35.6444 6.63383 32.6404 6.65046C31.8047 6.65622 30.9541 6.59418 30.0666 6.504C30.1584 6.48673 30.2494 6.45795 30.3353 6.41126C30.4509 6.3505 30.5846 6.28014 30.728 6.20467C31.3797 6.26031 32.0146 6.29485 32.6372 6.29037ZM16.5092 5.15574C16.5531 5.04125 16.597 4.92677 16.6416 4.8142C18.8711 5.19476 21.0916 5.73969 23.2585 6.27374C24.9836 6.69843 26.7669 7.13655 28.5211 7.48257C32.1334 8.1938 35.0599 8.37352 37.7325 8.05053C39.4705 7.84202 41.1549 7.40518 42.7341 6.86153C42.7548 6.98049 42.7741 7.10074 42.7942 7.22098C41.2099 7.76335 39.5209 8.19827 37.7758 8.40806C35.0644 8.73553 32.1018 8.55325 28.4507 7.83499C26.6881 7.48769 24.899 7.04765 23.1707 6.62232C20.9883 6.08507 18.7497 5.53438 16.5092 5.15574ZM16.1036 6.24368C16.1462 6.12792 16.1875 6.01279 16.2308 5.89575C18.8014 6.19635 21.3887 6.75472 23.8954 7.29773C25.6166 7.67061 27.3966 8.05692 29.1482 8.35241C34.0194 9.17813 38.0057 9.22098 41.6923 8.49057C42.105 8.40934 42.5203 8.31532 42.9427 8.20979C42.9602 8.32939 42.977 8.44899 42.9925 8.56924C42.5778 8.67157 42.1703 8.76303 41.7647 8.84298C38.0322 9.58427 34.0032 9.54077 29.0869 8.70675C27.3275 8.40998 25.543 8.02239 23.8185 7.64886C21.2931 7.10138 18.6851 6.53917 16.1036 6.24368ZM15.8304 7.01311C15.8704 6.89862 15.9111 6.78222 15.9531 6.66517C18.6167 6.95619 21.3022 7.53822 23.9005 8.10042C25.6211 8.4733 27.4011 8.85961 29.1527 9.15574C34.0239 9.98145 38.0109 10.0249 41.6975 9.29389C42.1418 9.20563 42.5894 9.10329 43.0467 8.98753C43.0629 9.10841 43.0771 9.22737 43.0919 9.34762C42.6443 9.46019 42.2045 9.55932 41.7692 9.64567C38.036 10.387 34.0077 10.3428 29.092 9.50943C27.3314 9.21266 25.5481 8.82507 23.8224 8.45155C21.2253 7.88935 18.5404 7.30668 15.8859 7.01951C15.8665 7.01759 15.8491 7.01631 15.8304 7.01311ZM15.5275 7.89958C15.5662 7.78382 15.6056 7.66613 15.6456 7.54845C15.738 7.55676 15.831 7.5638 15.924 7.57339C18.5999 7.83946 21.2996 8.40038 23.9109 8.94276C25.636 9.30093 27.4192 9.67125 29.1734 9.95267C34.0517 10.7355 38.0373 10.7451 41.7188 9.98209C42.1819 9.88679 42.6501 9.77359 43.1281 9.64759C43.1429 9.76975 43.1565 9.88935 43.1701 10.009C42.7031 10.1311 42.2458 10.2405 41.7937 10.3345C38.067 11.1071 34.0394 11.0988 29.1153 10.307C27.3521 10.0249 25.5656 9.65462 23.8366 9.29517C21.235 8.75536 18.5443 8.19635 15.8878 7.93092C15.7677 7.91941 15.6476 7.90918 15.5275 7.89958ZM15.16 9.02015C15.1961 8.90566 15.2336 8.78925 15.2723 8.66965C15.7548 8.71506 16.2398 8.77007 16.7307 8.83403C18.824 9.11033 20.9424 9.54973 22.9911 9.9757C25.2691 10.4471 27.624 10.9364 29.9497 11.2012C34.3494 11.7071 38.4055 11.4544 42.3492 10.4324C42.6256 10.3607 42.9059 10.2827 43.1907 10.2002C43.2037 10.323 43.2179 10.4439 43.2308 10.5641C42.9634 10.6402 42.6999 10.7125 42.4415 10.7797C38.4539 11.8145 34.3533 12.0691 29.9084 11.558C27.5658 11.2913 25.202 10.8014 22.9162 10.3268C20.874 9.90342 18.7626 9.46466 16.6829 9.19092C16.1707 9.12376 15.6631 9.0662 15.16 9.02015ZM14.7673 10.2705C14.8008 10.1625 14.8364 10.0454 14.8745 9.92197C15.4125 9.9936 15.9589 10.0774 16.5111 10.1727C18.1413 10.456 19.7908 10.8276 21.3874 11.1871C24.0975 11.7979 26.8999 12.4292 29.6804 12.6434C33.7242 12.9594 37.6169 12.4145 41.9352 11.1046C42.3511 10.9773 42.78 10.8411 43.2437 10.6863C43.256 10.8091 43.2676 10.9319 43.2799 11.0528C42.8445 11.198 42.4377 11.3272 42.0417 11.448C37.6782 12.7726 33.741 13.3214 29.652 13.0016C26.8457 12.7861 24.0303 12.1509 21.3067 11.5382C19.7146 11.1788 18.0696 10.8078 16.4498 10.5264C15.8801 10.4292 15.3195 10.3435 14.7673 10.2705ZM14.3849 11.0943C14.3914 11.095 14.4069 11.0937 14.4243 11.0918C15.0902 11.2069 15.7735 11.3361 16.4769 11.487C17.7299 11.7563 18.9997 12.0742 20.2262 12.3806C23.2824 13.1455 26.4433 13.7941 29.5952 13.9201C33.2753 14.0716 37.0117 13.4103 41.7046 11.7742C42.2245 11.5919 42.7367 11.4065 43.2947 11.1999C43.307 11.3259 43.3186 11.4493 43.3302 11.5696C42.8051 11.7653 42.3188 11.9418 41.826 12.1132C38.6348 13.2248 34.363 14.4759 29.581 14.2789C26.3904 14.1516 23.2114 13.4986 20.1377 12.7298C18.9125 12.4228 17.6466 12.1068 16.4007 11.8375C15.1225 11.5644 13.9134 11.3553 12.7547 11.205C13.7429 11.1282 14.3849 11.0943 14.3849 11.0943ZM8.03665 11.702C8.72256 11.6067 9.41235 11.5235 10.0737 11.4519C12.3556 11.6604 14.5089 12.1382 16.4498 12.6338C17.3914 12.8775 18.3454 13.1455 19.269 13.4033C22.6049 14.3364 26.0545 15.3009 29.5164 15.3124H29.6094C33.947 15.3124 37.8513 13.9124 41.4818 12.4778C41.9126 12.307 42.3427 12.135 42.7742 11.961C42.964 11.8849 43.1552 11.8094 43.3451 11.732C43.3574 11.8606 43.3677 11.9853 43.3793 12.1068C43.223 12.1695 43.0667 12.2315 42.9111 12.2955C42.4783 12.4675 42.0475 12.6415 41.6161 12.8116C37.9269 14.2705 33.9619 15.6981 29.5151 15.6719C26.0035 15.661 22.53 14.6888 19.1702 13.7493C18.2485 13.4922 17.2958 13.2248 16.3587 12.9824C13.8727 12.3467 11.038 11.7429 8.03665 11.702ZM4.81634 12.4509C5.5423 12.3678 6.26309 12.3294 6.98065 12.3294C10.2559 12.3294 13.4368 13.127 16.4272 14.0211C17.1079 14.2264 17.7996 14.4426 18.4675 14.653C22.0327 15.771 25.718 16.9268 29.4434 16.8027C33.6235 16.6677 37.2797 15.0457 41.1498 13.3297L41.3726 13.2312C42.0359 12.9376 42.7192 12.6345 43.4 12.3473C43.411 12.4771 43.422 12.6038 43.431 12.7253C42.7896 12.9984 42.1464 13.283 41.5218 13.5593L41.2983 13.6578C37.3947 15.3898 33.7061 17.0246 29.4557 17.1621C25.6683 17.2894 21.9519 16.1228 18.3577 14.9946C17.6905 14.7861 17 14.5699 16.3212 14.3652C12.716 13.2862 8.83107 12.3505 4.85767 12.8091C4.09942 12.8961 3.34117 13.0451 2.58938 13.2459C2.82383 13.0106 3.23912 12.7976 3.78036 12.6063C4.12461 12.5437 4.4708 12.4906 4.81634 12.4509ZM43.2469 13.1199C43.316 13.0886 43.3864 13.0598 43.4549 13.0297C43.4652 13.1634 43.4756 13.2907 43.484 13.409C43.4543 13.4225 43.4252 13.4346 43.3955 13.4474C42.6075 13.7998 41.8499 14.1682 41.2111 14.4829C40.8017 14.6837 40.3941 14.889 39.9872 15.0924C36.5163 16.827 33.2379 18.465 29.4001 18.7304C25.3776 19.0125 21.4578 17.6367 17.6692 16.3076C17.2093 16.1458 16.7494 15.9846 16.2889 15.8267C12.7031 14.5961 8.86853 13.4269 4.8693 13.8081C4.0174 13.8894 3.17066 14.0537 2.34072 14.2885C2.32844 14.1548 2.32651 14.032 2.33167 13.9194C3.15322 13.6911 3.99091 13.5305 4.83378 13.4506C8.90664 13.0617 12.7844 14.2437 16.4078 15.4864C16.8696 15.645 17.3307 15.8068 17.7912 15.9687C21.545 17.2862 25.4261 18.6479 29.3749 18.3716C33.1397 18.1119 36.3858 16.4893 39.8232 14.7701C40.2314 14.5667 40.6395 14.362 41.0503 14.1605C41.691 13.8452 42.4525 13.4743 43.2469 13.1199ZM43.0131 13.9859C43.1778 13.9092 43.3432 13.8356 43.5092 13.7608C43.5201 13.9124 43.5285 14.0429 43.535 14.1452C43.4129 14.1996 43.2902 14.2539 43.1701 14.3102C42.5216 14.6166 41.8363 14.9671 41.0148 15.4141C40.3773 15.7608 39.734 16.1234 39.114 16.4746C36.0694 18.197 32.9207 19.9783 29.3478 20.3556C25.1186 20.8065 21.0322 19.2088 17.0808 17.6649C16.8076 17.558 16.5337 17.4506 16.2599 17.3451C12.4609 15.8727 8.73225 14.5744 4.88351 14.866C4.08327 14.9255 3.29531 15.0656 2.52285 15.2715C2.49185 15.1519 2.46408 15.0349 2.44018 14.9223C3.23008 14.7112 4.03806 14.5686 4.85509 14.5072C8.78004 14.2098 12.5519 15.5222 16.3929 17.0099C16.6668 17.1167 16.9406 17.2235 17.2145 17.331C21.1252 18.859 25.169 20.4388 29.3097 19.9981C32.8071 19.6284 35.7826 17.945 38.9338 16.1631C39.5558 15.8113 40.1991 15.4474 40.8391 15.0988C41.6678 14.6485 42.3589 14.2949 43.0131 13.9859ZM42.7819 14.8929C43.088 14.7413 43.3968 14.598 43.7087 14.4611C43.8282 14.495 44.0116 14.5494 44.2506 14.621C43.8095 14.8052 43.3729 15.001 42.9447 15.2133C41.4139 15.9738 39.9239 16.9229 38.4843 17.842C35.8491 19.5229 33.1313 21.2523 30.0537 21.8868C29.8626 21.7909 29.6656 21.7039 29.4628 21.6284C32.6869 21.1065 35.5333 19.2952 38.2866 17.5395C39.7353 16.6166 41.2331 15.661 42.7819 14.8929ZM43.0893 16.3556C44.0136 15.8881 44.9695 15.4838 45.9467 15.1429C46.132 15.2024 46.3245 15.2632 46.5228 15.3278C45.4028 15.6956 44.3081 16.1439 43.2547 16.6754C41.784 17.4218 40.3424 18.3275 38.9474 19.2056C36.6125 20.6741 34.2151 22.1778 31.5832 22.992C31.4856 22.8941 31.3849 22.8008 31.2802 22.7093C33.9451 21.9245 36.382 20.3927 38.753 18.9025C40.1545 18.0198 41.6038 17.1084 43.0893 16.3556ZM4.87834 15.6035C5.13152 15.5887 5.38406 15.5817 5.6353 15.5817C9.47629 15.583 13.1532 17.1768 16.7184 18.7202C19.5267 19.9373 22.4021 21.1813 25.3415 21.6207C25.1335 21.6975 24.9313 21.787 24.7343 21.8849C21.9461 21.3764 19.2302 20.2002 16.5718 19.0496C12.8135 17.4212 8.92214 15.7384 4.89901 15.9623C4.20276 16.0019 3.5078 16.1055 2.82512 16.2705C2.78572 16.1535 2.74761 16.0397 2.71145 15.9271C3.42578 15.7531 4.15109 15.6444 4.87834 15.6035ZM43.3968 17.8382C44.9779 17.0253 46.6229 16.3882 48.2983 15.9284C48.4979 15.9981 48.6968 16.0691 48.8983 16.142C47.0737 16.6025 45.2808 17.2741 43.5647 18.1567C42.1625 18.8833 40.7784 19.7429 39.4376 20.5744C37.2293 21.9469 34.9656 23.3489 32.519 24.22C32.4583 24.1132 32.3937 24.0083 32.3265 23.906C34.7666 23.0489 37.0343 21.6437 39.2451 20.2705C40.5911 19.4346 41.9817 18.5699 43.3968 17.8382ZM43.7068 19.3303C45.946 18.1529 48.3054 17.3144 50.6854 16.8251C50.8895 16.9076 51.0897 16.9907 51.2848 17.0745C48.7607 17.5376 46.2502 18.3997 43.8767 19.6482C42.5365 20.3524 41.206 21.1692 39.9194 21.9591C37.7293 23.3041 35.4868 24.6792 33.0809 25.5785C33.0493 25.4615 33.0131 25.3457 32.975 25.2331C35.3434 24.3454 37.5607 22.9843 39.7282 21.6533C41.02 20.8602 42.3556 20.0409 43.7068 19.3303ZM6.45168 17.6732C6.62219 17.6668 6.79141 17.6642 6.96127 17.6642C10.5969 17.6642 14.0852 19.0988 17.4644 20.4893C19.4569 21.3099 21.4856 22.1426 23.5459 22.676C23.4374 22.7694 23.3309 22.8641 23.2295 22.9651C21.2253 22.426 19.2593 21.6162 17.3243 20.8212C13.8243 19.3809 10.201 17.8925 6.46589 18.0326C5.52163 18.0678 4.58253 18.2008 3.66346 18.4196C3.61566 18.3083 3.56722 18.1957 3.52072 18.0851C4.48242 17.8523 5.46415 17.7103 6.45168 17.6732ZM44.0162 20.8353C46.9142 19.2817 49.9181 18.2725 52.8898 17.8254C53.0751 17.9232 53.2489 18.0192 53.4129 18.1151C50.3302 18.5168 47.2029 19.5357 44.1893 21.1513C42.9337 21.8248 41.6788 22.5859 40.4665 23.3233C38.1652 24.7221 35.8084 26.1529 33.2805 27.0777C33.2799 26.9511 33.2747 26.8257 33.2663 26.701C35.7219 25.7851 38.0257 24.3844 40.2759 23.0169C41.4934 22.2769 42.7515 21.512 44.0162 20.8353ZM44.3262 22.355C47.7015 20.5104 51.1776 19.3719 54.5387 18.9735C54.6375 19.0899 54.706 19.2024 54.7447 19.3112C51.3797 19.686 47.8901 20.818 44.5012 22.6697C43.3451 23.3016 42.1845 24.0019 41.06 24.678C38.4991 26.2226 35.8717 27.8036 33.0364 28.749C33.0777 28.6114 33.1139 28.4707 33.1449 28.3294C35.8601 27.3879 38.3964 25.8631 40.8721 24.3716C41.9985 23.6917 43.1636 22.9901 44.3262 22.355ZM8.02696 19.7634C8.12061 19.7614 8.21426 19.7608 8.30856 19.7608C11.7278 19.7608 15.023 21.0393 18.211 22.275C19.6268 22.8238 21.0626 23.3796 22.5138 23.8228C22.4441 23.9258 22.3776 24.0313 22.3143 24.1394C20.8843 23.6968 19.4724 23.15 18.0786 22.6102C14.8364 21.3521 11.4811 20.0531 8.03406 20.1228C6.88829 20.1458 5.74381 20.2833 4.62193 20.5187C4.56832 20.4087 4.51536 20.2968 4.4624 20.1848C5.63401 19.9328 6.82887 19.7877 8.02696 19.7634ZM44.6368 23.89C47.272 22.4228 50.7752 20.8884 54.6407 20.2942C54.5975 20.4164 54.5464 20.5462 54.4864 20.6812C50.7558 21.2907 47.3715 22.7797 44.8157 24.2034C43.7752 24.7829 42.7257 25.4116 41.711 26.0192C38.6593 27.8465 35.5191 29.7224 32.0779 30.6166C32.1903 30.4707 32.2968 30.3179 32.3944 30.1612C35.6308 29.2389 38.618 27.4512 41.5237 25.7115C42.5403 25.1014 43.5925 24.472 44.6368 23.89ZM44.9456 25.3726C48.0897 23.5951 51.0923 22.3818 53.9361 21.7365C53.8528 21.8772 53.7662 22.0211 53.6745 22.1663C50.9683 22.8212 48.1123 23.9955 45.1258 25.684C44.2448 26.1874 43.3503 26.7202 42.4854 27.2376C38.6703 29.5171 34.7227 31.8746 30.2772 32.4912C29.9678 32.5341 29.6597 32.5635 29.3517 32.5852C29.7127 32.4586 30.055 32.2993 30.3805 32.1106C34.6911 31.4704 38.5579 29.1641 42.2981 26.93C43.1649 26.4119 44.0607 25.8772 44.9456 25.3726ZM9.60095 21.8631H9.65068C12.8568 21.8631 15.9576 22.9843 18.9564 24.0678C19.9168 24.4157 20.8869 24.7649 21.8641 25.079C21.8234 25.1916 21.7853 25.3054 21.7511 25.4199C20.7687 25.1046 19.7954 24.7547 18.8311 24.4055C15.8627 23.3323 12.7935 22.2226 9.65068 22.2226C9.63518 22.2226 9.61839 22.2226 9.60288 22.2226C8.27562 22.2277 6.949 22.3499 5.64564 22.5763C5.58944 22.4675 5.53261 22.3569 5.47513 22.243C6.83404 22 8.21685 21.8682 9.60095 21.8631ZM45.2459 26.7106C47.3585 25.4909 50.0408 24.0863 53.017 23.1634C52.9059 23.3259 52.7897 23.489 52.6734 23.6527C49.9104 24.5616 47.4154 25.874 45.4287 27.0208C44.7079 27.4397 43.9735 27.8772 43.2631 28.3012C39.2438 30.701 35.0857 33.1813 30.4077 33.8292C27.5381 34.2264 24.6517 33.7371 21.8596 33.2645C20.4128 33.0189 18.9189 32.7662 17.4418 32.639C11.753 32.149 6.01314 32.3435 0.467691 33.1973C0.531632 33.0694 0.601386 32.937 0.676953 32.8033C6.16944 31.9789 11.846 31.7953 17.4735 32.2814C18.9641 32.4087 20.4677 32.6645 21.9209 32.9095C24.6859 33.3783 27.5439 33.8625 30.3586 33.4723C34.9623 32.8353 39.0869 30.3742 43.0758 27.9936C43.7875 27.5696 44.5219 27.1302 45.2459 26.7106ZM6.54662 24.284C7.96496 24.0799 9.39879 23.9731 10.8262 23.9731C10.9431 23.9731 11.0606 23.9738 11.1775 23.9751C14.1001 24.0128 16.9419 24.9575 19.6901 25.8714C20.3017 26.0755 20.9179 26.2789 21.5379 26.4752C21.5257 26.5967 21.5166 26.7195 21.5114 26.8443C20.8623 26.639 20.2165 26.4253 19.5745 26.2117C16.8528 25.3073 14.0374 24.3722 11.173 24.3351C9.69072 24.3153 8.2007 24.4138 6.72941 24.6191C6.68484 24.5373 6.62219 24.424 6.54662 24.284ZM45.5469 28.0582C47.252 27.0521 49.4279 25.8305 51.7731 24.866C51.6226 25.0649 51.4695 25.2613 51.3184 25.4551C49.362 26.3012 47.4858 27.3323 45.7329 28.3671C45.2 28.6805 44.6672 28.9997 44.1344 29.3188C39.8819 31.8631 35.4849 34.4931 30.5394 35.1743C27.3798 35.6086 24.1537 35.2146 21.0322 34.8327C20.3657 34.7509 19.6772 34.6677 19.0009 34.5929C12.6553 33.8925 6.29603 33.9213 8.07806e-05 34.6645C-0.00121096 34.5552 0.0129982 34.4324 0.0420624 34.2987C6.33801 33.5612 12.696 33.5363 19.0403 34.236C19.7192 34.3108 20.4096 34.3946 21.0774 34.4765C24.1744 34.8545 27.3779 35.2466 30.4897 34.818C35.3608 34.1471 39.7256 31.5363 43.9464 29.0118C44.4799 28.6914 45.0134 28.3729 45.5469 28.0582ZM5.21871 26.6249C7.32167 26.2699 9.47565 26.0851 11.6387 26.0851C12.01 26.0851 12.3821 26.0908 12.7541 26.1023C15.3673 26.1791 17.9269 26.9453 20.4025 27.6866C20.7945 27.8056 21.1892 27.9233 21.5851 28.0384C21.6077 28.1727 21.6348 28.3051 21.6658 28.4362C21.2085 28.3032 20.7513 28.1682 20.2972 28.0313C17.8448 27.2971 15.3079 26.5366 12.7425 26.4611C10.0879 26.3838 7.4347 26.5878 4.86219 27.0521C4.98426 26.905 5.10246 26.7618 5.21871 26.6249ZM44.312 29.4308C46.0403 28.44 48.2569 27.2338 50.646 26.2993C50.4846 26.5014 50.325 26.6959 50.1694 26.8858C48.1801 27.7083 46.2735 28.7221 44.4935 29.741C43.9374 30.0595 43.3826 30.3831 42.8245 30.708C38.6412 33.1423 34.3158 35.6591 29.4841 36.3396C28.9506 36.4145 28.3932 36.4695 27.8248 36.5021C25.1477 36.6562 22.4254 36.3198 19.7928 35.993C19.2302 35.9233 18.669 35.8535 18.1096 35.7896C14.9287 35.4205 11.8195 35.2178 8.86788 35.1852C6.01895 35.1525 3.24493 35.2798 0.559405 35.5632C0.426355 35.4525 0.315266 35.3431 0.227427 35.2357C3.01759 34.93 5.90334 34.7918 8.8724 34.8251C11.8363 34.8577 14.9584 35.0624 18.151 35.432C18.7129 35.4966 19.2748 35.5664 19.8373 35.6361C22.4544 35.961 25.1606 36.2961 27.8035 36.1426C28.3615 36.11 28.9092 36.0563 29.433 35.9827C34.1938 35.3137 38.4882 32.8148 42.6405 30.3978C43.1978 30.0736 43.7559 29.7493 44.312 29.4308ZM43.0764 30.802C45.5113 29.45 47.5969 28.4835 49.4079 27.7985C49.2393 27.9974 49.0817 28.1829 48.9358 28.3524C46.9458 29.1429 45.0353 30.1266 43.2547 31.1161C42.674 31.4391 42.0928 31.7672 41.5102 32.0972C37.3973 34.4215 33.1442 36.827 28.4281 37.5043C27.9004 37.5804 27.3508 37.6354 26.794 37.6712C24.0342 37.8433 21.2318 37.4896 18.5204 37.1481C18.0851 37.0924 17.6511 37.0381 17.2164 36.9856C13.8844 36.5801 10.9082 36.3492 8.11997 36.2795C5.97697 36.2245 3.90372 36.2699 1.90475 36.4138C1.70389 36.3083 1.514 36.2027 1.33832 36.0985C3.51555 35.9213 5.78062 35.8593 8.12965 35.9188C10.9301 35.9904 13.9173 36.2219 17.261 36.6287C17.6956 36.6812 18.1303 36.7368 18.5663 36.7912C21.2608 37.1314 24.0458 37.4832 26.7708 37.3118C27.3185 37.2773 27.8578 37.2229 28.3764 37.1487C33.0247 36.481 37.2474 34.0934 41.3306 31.7845C41.9138 31.4551 42.4951 31.1257 43.0764 30.802ZM3.29402 29.001C6.15587 28.4675 9.10879 28.1925 12.0817 28.1925C12.8297 28.1925 13.5802 28.2098 14.3307 28.245C16.6209 28.3524 18.8821 28.944 21.069 29.5171C21.4398 29.6143 21.8118 29.7115 22.1857 29.8068C22.2658 29.9559 22.3524 30.1017 22.4447 30.243C21.9519 30.1196 21.4624 29.9923 20.976 29.865C18.8072 29.2971 16.5647 28.7099 14.3145 28.6044C10.4761 28.4234 6.64157 28.7099 2.96656 29.4282C3.07572 29.2856 3.18487 29.1423 3.29402 29.001ZM41.8422 32.1752C43.7591 31.1449 45.8252 30.1893 47.9831 29.4787C48.0063 29.5216 48.0677 29.6329 48.1588 29.8004C46.0029 30.5053 43.9341 31.4595 42.0159 32.4906C41.4075 32.818 40.7997 33.1513 40.1907 33.4858C36.1507 35.702 31.9726 37.9942 27.3734 38.669C26.8509 38.7451 26.3103 38.8027 25.7639 38.8404C22.9091 39.0329 20.0104 38.6581 17.2093 38.2948C16.9135 38.2571 16.6196 38.2194 16.3251 38.181C12.8038 37.7327 9.9594 37.4768 7.37205 37.3732C6.19333 37.3265 5.04304 37.315 3.91922 37.3348C3.64667 37.2235 3.37928 37.1091 3.12157 36.9952C4.5018 36.9517 5.92271 36.9549 7.38626 37.0138C9.98524 37.118 12.84 37.3758 16.3716 37.8248C16.6668 37.8625 16.9613 37.9002 17.2552 37.9386C20.0408 38.2987 22.9207 38.6716 25.7393 38.481C26.2754 38.4452 26.8076 38.3889 27.3204 38.3134C31.8538 37.6476 36.0022 35.3726 40.015 33.1711C40.624 32.8359 41.2331 32.5027 41.8422 32.1752ZM1.73876 31.1161C5.11925 30.5181 8.60308 30.2111 12.0863 30.2111C13.3606 30.2111 14.6368 30.2514 15.9053 30.3358C17.8397 30.4618 19.7669 30.8826 21.6316 31.2907C22.3737 31.4519 23.1216 31.6162 23.874 31.7614C24.1401 31.9571 24.423 32.1305 24.7201 32.2814C23.6551 32.1004 22.5972 31.8702 21.5534 31.6425C19.7024 31.2376 17.7886 30.8187 15.8814 30.694C11.0554 30.3767 6.15135 30.6716 1.45846 31.5305C1.54888 31.393 1.64253 31.2549 1.73876 31.1161ZM40.6079 33.5472C43.0144 32.2968 45.6567 31.0585 48.4191 30.2821C48.4733 30.3825 48.5314 30.4912 48.5922 30.6076C45.833 31.3745 43.1849 32.6134 40.7765 33.8657C40.139 34.1976 39.5009 34.5366 38.8621 34.8756C34.8971 36.9831 30.7978 39.1621 26.3187 39.8343C25.802 39.9117 25.2698 39.9706 24.7343 40.0096C21.7679 40.2258 18.7594 39.8228 15.8517 39.434L15.4332 39.3777C12.7379 39.0182 9.86252 38.6671 7.02715 38.4931C6.6364 38.3601 6.23661 38.2194 5.83552 38.0736C6.1042 38.0838 6.37224 38.094 6.6448 38.1081C9.62291 38.2725 12.6527 38.6441 15.4816 39.0221L15.9001 39.0777C18.7904 39.464 21.7775 39.8644 24.7079 39.6508C25.2336 39.613 25.7574 39.5542 26.2638 39.4787C30.6809 38.8155 34.7518 36.6517 38.6903 34.559C39.3304 34.2187 39.9691 33.8804 40.6079 33.5472ZM39.3736 34.9204C42.302 33.4506 45.5843 32.0026 48.9984 31.3815C49.0546 31.4902 49.1127 31.6009 49.1715 31.7167C45.7607 32.3185 42.4699 33.7697 39.537 35.2408C38.8679 35.5772 38.1988 35.9201 37.529 36.2648C33.6409 38.2641 29.6203 40.3307 25.2627 40.9997C24.7524 41.0777 24.2286 41.1378 23.7035 41.1788C20.6066 41.4205 17.5225 41.1046 14.5406 40.6882L14.4417 40.6735C13.3929 40.5283 12.3304 40.3793 11.2621 40.2405C11.2486 40.0217 11.2408 39.8989 11.2408 39.8989L11.2389 39.8753C12.3323 40.0166 13.4193 40.1676 14.4934 40.3172L14.5916 40.3319C17.5542 40.7451 20.6176 41.0585 23.6751 40.8206C24.1905 40.7797 24.7059 40.7202 25.2071 40.6434C29.5067 39.984 33.4994 37.9316 37.3611 35.9463C38.0328 35.6009 38.7026 35.2562 39.3736 34.9204ZM38.1387 36.2923C41.6064 34.6166 45.5753 32.9709 49.6656 32.6952C49.7231 32.8104 49.7806 32.9268 49.8393 33.0451C45.7561 33.2869 41.7743 34.9351 38.2983 36.6153C37.5943 36.9562 36.8903 37.3048 36.1856 37.6553C32.3789 39.5453 28.4423 41.4992 24.2073 42.1637C23.7016 42.243 23.1849 42.3057 22.6734 42.3479C19.6946 42.5967 16.7049 42.2162 13.6493 41.7704C13.2017 41.7045 12.7534 41.6386 12.3059 41.5715C11.9881 41.5254 11.669 41.4787 11.3487 41.4314C11.3377 41.3009 11.3293 41.1794 11.3203 41.063C11.6677 41.1148 12.0146 41.166 12.3595 41.2165C12.8064 41.283 13.2546 41.3489 13.7016 41.4141C16.7359 41.8574 19.7024 42.2354 22.6437 41.9898C23.1468 41.9476 23.6538 41.8868 24.1498 41.8081C28.3286 41.1525 32.2406 39.212 36.0229 37.3335C36.7282 36.9831 37.4334 36.6332 38.1387 36.2923ZM36.9032 37.6649C40.6318 35.9335 44.9436 34.2405 49.3549 34.2405C49.7127 34.2411 50.0705 34.2514 50.4303 34.2744C50.4878 34.3985 50.5453 34.5225 50.6021 34.6466C45.8343 34.2795 41.1013 36.1126 37.0582 37.9898C36.3154 38.3351 35.5604 38.6972 34.8306 39.0457C31.1084 40.827 27.2597 42.669 23.1526 43.3284C22.6521 43.409 22.145 43.4717 21.6438 43.5165C18.5689 43.7909 15.4441 43.377 12.7567 42.9658C12.3265 42.9005 11.8957 42.8315 11.4643 42.7637C11.4527 42.637 11.441 42.5149 11.4301 42.3933C11.8906 42.4669 12.3517 42.5411 12.8122 42.6115C15.4784 43.017 18.5753 43.4295 21.6116 43.1589C22.1037 43.1148 22.6036 43.0528 23.0945 42.9741C27.1486 42.3224 30.9741 40.4925 34.6717 38.7221C35.4028 38.3722 36.1591 38.0109 36.9032 37.6649ZM35.6696 39.0368C39.3207 37.4097 43.5363 35.8241 47.8513 35.8241C48.6212 35.8241 49.3943 35.874 50.1687 35.9846C50.5414 36.0377 50.9153 36.1062 51.2803 36.1861C51.3377 36.3224 51.3939 36.4592 51.4482 36.5948C51.3868 36.5801 51.3261 36.5628 51.2641 36.5494C50.8876 36.4656 50.5013 36.3946 50.1177 36.3403C45.1019 35.6278 40.0744 37.4685 35.8188 39.3649C35.034 39.7141 34.2364 40.0812 33.4652 40.4375C29.8316 42.1106 26.0732 43.8395 22.0966 44.4938C21.6019 44.575 21.1033 44.6396 20.6137 44.6856C17.602 44.9722 14.6284 44.6031 11.8654 44.1618C11.7782 44.149 11.6903 44.1337 11.6038 44.1202C11.5889 43.9949 11.576 43.8714 11.5631 43.7493C11.6832 43.7685 11.8027 43.7877 11.9229 43.8075C14.6633 44.245 17.6084 44.6102 20.5795 44.3288C21.0606 44.2827 21.5508 44.22 22.0378 44.1394C25.9647 43.4934 29.6998 41.7742 33.3109 40.1106C34.0833 39.7557 34.8835 39.3879 35.6696 39.0368ZM34.436 40.4093C38.0444 38.8711 42.1561 37.4058 46.3394 37.4058C47.5329 37.4058 48.7329 37.5248 49.9285 37.7953C50.6738 37.9655 51.4023 38.1932 52.1193 38.4522C52.1645 38.6006 52.2058 38.7432 52.242 38.882C51.4572 38.5884 50.6596 38.3313 49.8477 38.1465C44.5658 36.9498 39.1637 38.7854 34.5793 40.74C33.7468 41.0937 32.902 41.4679 32.0837 41.8292C28.098 43.5913 23.9761 45.4129 19.5835 45.8555C16.9748 46.1177 14.3546 45.8823 11.7672 45.4838C11.7504 45.3591 11.7355 45.237 11.72 45.1122C14.3171 45.5165 16.9432 45.7602 19.5467 45.4979C23.8811 45.0611 27.9753 43.2517 31.9358 41.5011C32.7548 41.1391 33.6008 40.765 34.436 40.4093ZM38.8201 41.0771C41.3261 40.2859 44.4566 39.4551 47.6873 39.4551C48.5398 39.4551 49.4001 39.5133 50.2585 39.645C51.0032 39.7589 51.7356 39.9296 52.457 40.1286C52.4616 40.2642 52.4551 40.3876 52.4377 40.497C51.702 40.2923 50.9573 40.1164 50.2023 40C46.1708 39.3802 42.0611 40.4324 38.9299 41.4193C37.7615 41.7877 36.5228 42.2143 35.0334 42.7637C34.485 42.9645 33.9373 43.1705 33.389 43.3758C30.7958 44.346 28.1135 45.3502 25.4015 46.0582C23.4781 46.5609 21.7291 46.8647 20.0544 46.9869C17.3385 47.1858 14.6045 46.9121 11.9112 46.5091C11.8931 46.385 11.8744 46.261 11.8563 46.1362C14.5651 46.5456 17.3101 46.827 20.0272 46.6287C21.6787 46.5072 23.4071 46.2079 25.3092 45.7103C28.0031 45.0074 30.6763 44.007 33.2611 43.0393C33.8095 42.834 34.3578 42.6287 34.9068 42.4253C36.402 41.8753 37.6459 41.4468 38.8201 41.0771ZM39.2968 43.267C42.3233 42.3774 45.7794 41.4557 49.1954 41.457C49.6604 41.457 50.1255 41.473 50.5872 41.5101C50.7829 41.5254 50.9754 41.5465 51.1679 41.5676C50.9044 41.6681 50.6047 41.7621 50.2811 41.8523C46.5673 41.6226 42.7238 42.6351 39.4001 43.6118C38.036 44.0109 36.6655 44.4356 35.4887 44.8008C32.375 45.7749 29.1527 46.7822 25.8433 47.4468C23.918 47.8337 22.1786 48.0595 20.5246 48.1337C17.7118 48.261 14.8719 47.9552 12.0824 47.5587C12.0604 47.4352 12.0391 47.3105 12.0178 47.1852C14.8286 47.5881 17.6879 47.9021 20.5084 47.7749C22.1438 47.7007 23.8644 47.4781 25.771 47.0943C29.0617 46.4336 32.2742 45.4295 35.3802 44.4586C36.5583 44.0915 37.9301 43.6674 39.2968 43.267ZM35.8549 46.513C36.9529 46.2334 38.1245 45.9252 39.5183 45.5478C39.475 45.6808 39.4305 45.8164 39.3846 45.9565C38.0884 46.307 36.9839 46.5974 35.9447 46.8615C32.2871 47.7985 29.3975 48.4029 26.6377 48.8052C26.5085 48.6984 26.3845 48.5942 26.2676 48.4957C29.1095 48.0953 32.0682 47.4832 35.8549 46.513ZM36.3309 48.5916C37.1002 48.4394 37.8733 48.2725 38.6438 48.0972C38.5941 48.2309 38.5456 48.3646 38.4953 48.5002C37.7977 48.6569 37.0989 48.8065 36.402 48.9434C33.7081 49.4839 31.0406 49.8791 28.2931 50.1484C28.1562 50.0403 28.0225 49.9335 27.8901 49.8273C30.7551 49.5587 33.5292 49.1532 36.3309 48.5916ZM12.2916 48.6402C12.2652 48.5187 12.2393 48.3933 12.2154 48.268C15.1115 48.6543 18.0735 48.9933 20.9915 48.9434C21.4398 48.9364 21.897 48.9184 22.364 48.8922C22.1056 49.0208 21.8344 49.1538 21.5554 49.2894C21.3681 49.2952 21.1821 49.3003 20.9967 49.3028C18.0935 49.3515 15.1619 49.0221 12.2916 48.6402ZM12.5655 49.7627C12.5313 49.6412 12.499 49.5152 12.4654 49.3879C14.8964 49.6815 17.3863 49.9699 19.8561 50.0851C19.6132 50.1944 19.3691 50.3025 19.1256 50.4087C16.9271 50.2782 14.724 50.0217 12.5655 49.7627ZM12.9562 50.8903C12.9046 50.7726 12.8536 50.6473 12.8045 50.5123C13.1242 50.5469 13.4439 50.5807 13.7616 50.6153C15.045 50.7534 16.349 50.8935 17.6575 51.015C17.394 51.1167 17.135 51.2127 16.8831 51.3022C15.8213 51.198 14.7647 51.0854 13.7229 50.9728C13.4684 50.9453 13.212 50.9184 12.9562 50.8903ZM36.8057 50.6588C37.1041 50.6159 37.3999 50.5699 37.6944 50.5225C37.6395 50.6543 37.5826 50.7841 37.5252 50.9121C37.3036 50.9466 37.0827 50.9818 36.858 51.0144C34.8248 51.3086 32.6986 51.5018 30.2126 51.6143C30.0595 51.5018 29.9065 51.3885 29.7534 51.2741C32.4196 51.1653 34.664 50.9683 36.8057 50.6588ZM13.6254 51.8081C13.511 51.7461 13.4019 51.6418 13.2973 51.5024C14.0516 51.5715 14.8028 51.6444 15.5481 51.7179C14.6788 51.9431 13.9871 52.0064 13.6254 51.8081ZM31.835 52.7426C33.4659 52.763 35.0818 52.7336 36.6881 52.6146C36.6138 52.7458 36.5402 52.8724 36.4672 52.992C35.1212 53.0841 33.7694 53.1167 32.4099 53.1091C32.2226 52.9933 32.0301 52.8698 31.835 52.7426ZM34.102 54C33.9832 53.9514 33.8598 53.8977 33.732 53.8375C34.4017 53.8804 35.0715 53.9111 35.7413 53.9264C35.7128 53.952 35.6851 53.9763 35.6573 54H34.102ZM127.113 47.8003C126.88 47.8425 126.097 47.9358 125.202 47.9358C123.412 47.9358 123.008 47.2713 123.008 46.5556C123.008 45.6256 123.549 45.1402 125.072 45.1402C125.512 45.1402 125.933 45.1741 126.132 45.1997C126.132 44.3989 125.589 44.2026 124.814 44.2026C124.16 44.2026 123.764 44.3989 123.635 44.5006C123.566 44.4411 123.402 44.2793 123.402 44.0491C123.402 43.7254 123.704 43.4184 124.831 43.4184C126.174 43.4184 127.113 43.9039 127.113 45.2336V47.8003ZM126.14 45.9077C126.028 45.8821 125.736 45.8226 125.107 45.8226C124.324 45.8226 123.988 46.0433 123.988 46.5467C123.988 46.9643 124.255 47.2285 125.202 47.2285C125.727 47.2285 126.037 47.1773 126.14 47.1517V45.9077ZM128.562 41.5286C128.767 41.5286 128.961 41.6079 129.019 41.6303V47.3636C129.019 47.6693 128.824 47.8158 128.494 47.8158C128.287 47.8158 128.093 47.748 128.037 47.7256V41.9808C128.037 41.6757 128.23 41.5286 128.562 41.5286ZM122.083 45.057V47.3633C122.083 47.6691 121.889 47.8155 121.558 47.8155C121.352 47.8155 121.158 47.7484 121.101 47.726V45.3851C121.101 44.6048 120.724 44.2991 120.108 44.2991C119.525 44.2991 119.08 44.6496 119.08 45.4868V47.3633C119.08 47.6691 118.886 47.8155 118.554 47.8155C118.349 47.8155 118.155 47.7484 118.098 47.726V45.4868C118.098 44.6496 117.653 44.2991 117.07 44.2991C116.476 44.2991 116.066 44.6163 116.066 45.3966V47.3633C116.066 47.6691 115.871 47.8155 115.54 47.8155C115.334 47.8155 115.14 47.7484 115.083 47.726V45.0685C115.083 44.3221 115.472 43.8245 116.066 43.5872C116.339 43.4734 116.647 43.4171 116.979 43.4171C117.413 43.4171 117.79 43.5079 118.098 43.6998C118.303 43.8245 118.474 43.994 118.612 44.1974C118.737 44.0049 118.897 43.8462 119.08 43.7228C119.388 43.5194 119.776 43.4171 120.211 43.4171C120.531 43.4171 120.838 43.4734 121.101 43.5872C121.695 43.8021 122.083 44.2991 122.083 45.057ZM130.543 41.5286C130.749 41.5286 130.943 41.6079 131 41.6303V47.3636C131 47.6693 130.806 47.8158 130.475 47.8158C130.269 47.8158 130.075 47.748 130.018 47.7256V41.9808C130.018 41.6757 130.212 41.5286 130.543 41.5286Z" fill="#343087"/>
</svg>
